<?xml version="1.0" encoding="UTF-8" standalone="no"?>
<!-- Created with Inkscape (http://www.inkscape.org/) -->

<svg
   width="58.142578mm"
   height="57.973072mm"
   viewBox="0 0 58.142578 57.973072"
   version="1.1"
   id="svg1"
   xml:space="preserve"
   inkscape:version="1.3.2 (091e20e, 2023-11-25)"
   sodipodi:docname="logo.svg"
   xmlns:inkscape="http://www.inkscape.org/namespaces/inkscape"
   xmlns:sodipodi="http://sodipodi.sourceforge.net/DTD/sodipodi-0.dtd"
   xmlns:xlink="http://www.w3.org/1999/xlink"
   xmlns="http://www.w3.org/2000/svg"
   xmlns:svg="http://www.w3.org/2000/svg"><sodipodi:namedview
     id="namedview1"
     pagecolor="#ffffff"
     bordercolor="#000000"
     borderopacity="0.25"
     inkscape:showpageshadow="2"
     inkscape:pageopacity="0.0"
     inkscape:pagecheckerboard="0"
     inkscape:deskcolor="#d1d1d1"
     inkscape:document-units="mm"
     inkscape:zoom="1.560854"
     inkscape:cx="287.66304"
     inkscape:cy="-68.872553"
     inkscape:current-layer="layer1" /><defs
     id="defs1"><linearGradient
       id="a"><stop
         stop-color="#989898"
         offset="0"
         id="stop1" /><stop
         stop-color="#989898"
         stop-opacity="0"
         offset="1"
         id="stop2" /></linearGradient><linearGradient
       id="f"
       x1="87.529999"
       x2="86.18"
       y1="8.2285004"
       y2="31.315001"
       gradientUnits="userSpaceOnUse"><stop
         stop-color="#bdbdbd"
         offset="0"
         id="stop3" /><stop
         stop-color="#bdbdbd"
         stop-opacity="0"
         offset="1"
         id="stop4" /></linearGradient><linearGradient
       id="d"
       x1="45.456001"
       x2="102.94"
       y1="119.69"
       y2="22.569"
       gradientUnits="userSpaceOnUse"><stop
         offset="0"
         id="stop5" /><stop
         stop-color="#959595"
         offset="1"
         id="stop6" /></linearGradient><linearGradient
       id="e"
       x2="0"
       y1="13.879"
       y2="137.21001"
       gradientUnits="userSpaceOnUse"
       xlink:href="#a" /><radialGradient
       id="c"
       cx="16.073999"
       cy="98.385002"
       r="7.395"
       gradientTransform="matrix(2.2776,1.8145,-1.5547,2.3139,142.42,-168.8)"
       gradientUnits="userSpaceOnUse"
       xlink:href="#a" /><radialGradient
       id="b"
       cx="16.886"
       cy="97.809998"
       r="7.395"
       gradientTransform="matrix(0.5073,2.9921,-2.503,0.62902,307.65,-19.14)"
       gradientUnits="userSpaceOnUse"
       xlink:href="#a" /><style
       type="text/css"
       id="style1">  .fil0 {fill:#F0F0F0} .fil1 {fill:#011627;fill-rule:nonzero}  </style></defs><g
     inkscape:label="Layer 1"
     inkscape:groupmode="layer"
     id="layer1"
     transform="translate(-14.069489,-83.060829)"><g
       id="Layer_x0020_1"
       inkscape:label="Layer 1"
       inkscape:groupmode="layer"
       transform="matrix(0.01,0,0,0.01,59.619024,165.72884)"
       style="clip-rule:evenodd;fill-rule:evenodd;image-rendering:optimizeQuality;shape-rendering:geometricPrecision;text-rendering:geometricPrecision"><metadata
         id="CorelCorpID_0Corel-Layer" /></g><circle
       style="fill:#0000ff;stroke-width:0.396875"
       id="path3"
       cx="43.056023"
       cy="111.70834"
       r="28.138977"
       inkscape:export-filename="logo_32.png"
       inkscape:export-xdpi="14.4426"
       inkscape:export-ydpi="14.4426" /><g
       id="g2"
       transform="matrix(0.8333205,0,0,0.8333205,-45.031677,-65.052873)"
       inkscape:export-filename="appicon.png"
       inkscape:export-xdpi="90.266251"
       inkscape:export-ydpi="90.266251"><rect
         style="clip-rule:evenodd;fill:#ff9955;fill-rule:evenodd;stroke-width:38.9788;image-rendering:optimizeQuality;shape-rendering:geometricPrecision;text-rendering:geometricPrecision"
         id="rect2"
         width="4678.5283"
         height="3474.9939"
         x="2208.5708"
         y="3209.155"
         transform="matrix(0.01,0,0,0.01,59.619023,165.72884)" /><path
         class="fil1"
         d="M 2332,6601 H 6812 V 3387 H 2332 Z m -80,-4234 1329,2 c 32,0 60,17 75,42 v 0 l 220,361 h 3024 c 49,0 88,39 88,88 v 426 c 1,4 1,8 1,13 v 3390 c 0,49 -39,88 -88,88 h -1 -4656 c -49,0 -88,-39 -88,-88 V 3299 2455 c 0,-49 39,-88 88,-88 3,0 5,0 8,0 z m 1280,178 -1200,-2 v 668 H 6812 V 2948 H 3827 v 0 c -30,0 -59,-15 -75,-42 z"
         id="path1"
         style="clip-rule:evenodd;fill-rule:evenodd;image-rendering:optimizeQuality;shape-rendering:geometricPrecision;text-rendering:geometricPrecision"
         transform="matrix(0.01,0,0,0.01,59.619023,165.72884)" /><path
         style="clip-rule:evenodd;fill:#e9afaf;fill-rule:evenodd;stroke-width:0.961012;image-rendering:optimizeQuality;shape-rendering:geometricPrecision;text-rendering:geometricPrecision"
         d="m 313.43017,722.98535 c 0,8.12064 0,16.24128 0,24.36192 4.22324,1.20092 9.38213,0.14296 13.9547,0.50052 51.68111,0 103.36222,0 155.04333,0 0.88574,-3.02366 0.75767,-7.49964 0.0481,-10.55798 -38.15648,-0.21714 -76.39733,-0.23216 -114.58623,-0.37228 -3.02944,-4.63807 -5.60247,-9.74915 -8.91314,-14.0961 -15.01414,-0.11286 -30.02829,-0.22506 -45.04245,-0.3366 l -0.45471,0.45133 z"
         id="path2"
         transform="scale(0.26458333)" /><g
         transform="matrix(0.26458333,0,0,0.26458333,85.155461,198.98236)"
         id="g11"><path
           d="m 99.625,12.094 c -0.51962,-0.15202 -1.1531,-0.05014 -1.9375,0.40625 -5.5158,3.0607 -11.945,3.5772 -16.656,4.125 -4.6616,0.54203 -8.4046,0.69603 -13,0.5 -4.2278,-0.18035 -6.9841,-0.40518 -9.4688,-0.875 -1.7908,-0.33863 -4.1738,-1.514 -5.2188,-0.40625 2.9377,6.7609 4.0597,16.224 3.9062,21.469 -0.28735,9.7352 -1.2821,16.834 -2.7188,25.062 -1.4017,8.0285 -4.1905,15.295 -6.75,22.812 -1.8433,5.9936 -5.7294,0.008 -8.5,-1.2188 -3.9932,-1.7682 -7.508,-1.8897 -11.375,0 -3.867,1.8897 -6.0307,4.6766 -7,9.0625 -0.94752,4.2873 1.244,9.5983 4.8125,12.5 3.466,2.8183 8.5926,3.1968 12.75,1.875 4.1031,-1.421 7.8032,-5.2928 9.3438,-9.3125 0.78874,-1.8694 1.2535,-2.6967 2.1875,-5.6562 0.934,-2.9595 2.1804,-7.2966 3.2188,-11 1.911,-6.8157 4.5629,-13.026 6.2188,-28.375 0.33208,-2.7016 1.0462,-9.2742 1.1875,-15.75 1.043,0.08748 2.2433,0.46402 3.2812,0.625 2.4301,0.37689 5.1389,0.50858 9.25,0.53125 4.4686,0.02464 8.0892,-0.28465 12.594,-1 4.1484,-0.65879 9.6498,-1.4135 14.562,-4 0.37062,5.8443 0.24864,14.93 -0.1875,19.281 -0.79979,7.98 -2.9866,21.396 -5.1562,29.062 -1.0941,3.8662 -2.2587,6.7898 -3.4688,9.9688 -1.6,2.8881 -5.2509,-1.8724 -7.6562,-2.9375 -3.9932,-1.7681 -7.508,-1.921 -11.375,-0.03125 -3.867,1.88975 -6.0619,4.7078 -7.0312,9.0938 -0.94752,4.2873 1.244,9.5671 4.8125,12.469 3.466,2.8183 8.5926,3.1968 12.75,1.875 4.1031,-1.421 7.8032,-5.2928 9.3438,-9.3125 4.1731,-11.238 6.3922,-19.501 7.4375,-23.781 1.452,-5.9453 4.2064,-18.913 4.5,-35.156 0.0549,-3.0393 0.0515,-11.363 -0.625,-18.188 -0.25687,-2.5912 -2.4724,-13.263 -4.0312,-13.719 z m -0.40625,12.219 c 0.49197,1.9394 0.59955,3.6965 0.78125,5.7188 -5.0847,2.9141 -10.929,3.7151 -15.281,4.4062 -4.5046,0.71535 -8.1251,0.99339 -12.594,0.96875 -4.1111,-0.02267 -6.8199,-0.15436 -9.25,-0.53125 -0.68205,-0.10578 -1.4391,-0.32717 -2.1875,-0.5 -0.0269,-2.3981 -0.16516,-4.6977 -0.46875,-6.6875 6.39,0.46748 8.9415,0.51718 11.75,0.5625 4.8229,0.07646 10.776,-0.55807 14.312,-1.1562 4.3694,-0.73916 10.164,-2.2837 12.938,-2.7812 z"
           id="path6" /><path
           d="m 35.5,98.292 c -4.1742,3.7595 -9.8358,4.2118 -12.637,1.0096 -2.8012,-3.2022 -1.6877,-8.8524 2.4866,-12.612 4.1743,-3.7596 9.8358,-4.2118 12.637,-1.0096 2.792,3.1912 1.6989,8.8113 -2.4458,12.575"
           fill="url(#c)"
           id="path7"
           style="fill:url(#c)" /><path
           d="m 80.049,103 c -4.1742,3.7595 -9.8358,4.2118 -12.637,1.0096 -2.8012,-3.2022 -1.6877,-8.8524 2.4866,-12.612 4.1743,-3.7596 9.8358,-4.2118 12.637,-1.0096 2.792,3.1912 1.6989,8.8113 -2.4458,12.575"
           fill="url(#b)"
           id="path8"
           style="fill:url(#b)" /><path
           d="m 98.88947,12.80753 c -0.24299,0.04913 -0.52467,0.17118 -0.875,0.375 -5.65695,3.13905 -12.1823,3.64185 -16.875,4.1875 -4.68417,0.54466 -8.47239,0.69714 -13.09375,0.5 -1.48187,-0.06321 -2.60344,-0.13568 -3.78125,-0.21875 4.41229,2.27221 8.65858,3.41617 12.91229,4.39614 11.56354,2.66401 17.17518,0.94305 25.18146,0.29136 -0.3651,-1.9114 -0.80923,-4.13491 -1.34375,-6 -0.29658,-1.03485 -0.60864,-1.94558 -0.90625,-2.59375 -0.1488,-0.32409 -0.31691,-0.55814 -0.4375,-0.71875 -0.12059,-0.16061 -0.19649,-0.19927 -0.15625,-0.1875 -0.16655,-0.04873 -0.38201,-0.08038 -0.625,-0.03125 z"
           fill="url(#f)"
           id="path9"
           style="fill:url(#f)" /><path
           d="m 55.256,15.808 c -0.29495,-0.02063 -0.56658,-0.0063 -0.9375,0.03125 -0.24914,0.02521 -0.37918,0.11756 -0.53125,0.21875 2.8721,6.8257 3.9656,16.048 3.8125,21.281 -0.288,9.7574 -1.2807,16.888 -2.7188,25.125 -1.4082,8.0658 -4.1024,15.22 -6.6562,22.719 0.36566,-0.3503 1.3185,-2.0472 1.8096,-3.5565 2.5428,-7.8134 4.3306,-11.074 6.7216,-26.037 -3.9e-4,-0.01041 -3.9e-4,-0.02084 0,-0.03125 l 0.0625,-0.25 c 0.0016,-0.01041 -0.0016,-0.02084 0,-0.03125 2.3045,-14.636 2.3353,-27.425 -0.71875,-39.281 -0.31883,-0.08182 -0.60877,-0.17107 -0.84375,-0.1875 z"
           fill="url(#e)"
           id="path10"
           style="fill:url(#e)" /><path
           d="M 99.875,24.84375 99.84375,24.875 H 99.8125 l -0.03125,0.03125 c -0.0011,0.01039 -0.0011,0.02086 0,0.03125 L 99.75,24.96875 c -0.0011,0.01039 -0.0011,0.02086 0,0.03125 0.0011,0.01039 -0.0011,0.02086 0,0.03125 0.40057,1.80241 0.53732,4.05817 0.75,6.51696 -0.48021,-0.08258 -1.00572,-0.0072 -1.6875,0.4375 -5.2372,3.26401 -8.73783,3.52103 -13.2902,4.24396 -4.50458,0.71535 -10.86619,0.95122 -15.3348,0.92658 -3.27515,-0.01806 -5.28857,-0.18902 -7.34375,-0.40625 2.10074,0.34469 4.21783,0.62367 7.625,0.8125 4.46183,0.24728 7.96386,0.27276 12.49849,-0.21724 4.58274,-0.4952 10.98317,-1.06501 16.37651,-4.06401 0.5361,-0.31275 1.08303,-0.41906 1.3125,-0.25 0.39083,5.84813 0.25622,15.16652 -0.1875,19.59375 -0.80104,7.99247 -2.98035,21.40484 -5.15625,29.09375 -1.0134,3.58103 -2.04497,6.34294 -3.15625,9.25 L 92.125,91 c -0.0011,0.01039 -0.0011,0.02086 0,0.03125 0.0011,0.01039 -0.0011,0.02086 0,0.03125 l 0.03125,0.03125 c -0.0011,0.01039 -0.0011,0.02086 0,0.03125 l 0.03125,0.03125 h 0.03125 L 92.25,91.1875 h 0.03125 0.03125 l 0.03125,-0.03125 H 92.375 L 92.40625,91.125 c 0.46367,-0.62963 1.11368,-1.6097 1.78125,-3.4375 1.61626,-4.4253 4.11027,-13.7936 6.1875,-28.0625 l 0.0312,-0.28125 c 0.96117,-7.04934 1.25582,-14.45014 1.09375,-22.0625 -0.0373,-1.75297 -0.49879,-8.51178 -0.65625,-9.5 -0.18558,-1.16474 -0.43777,-2.07914 -0.6875,-2.65625 -0.027,-0.0625 -0.0383,-0.09542 -0.0625,-0.125 -0.0242,-0.02958 -0.0491,-0.03892 -0.0625,-0.0625 0.001,-0.01039 0.001,-0.02086 0,-0.03125 L 100,24.875 H 99.96875 L 99.9375,24.84375 h -0.03125 z"
           fill="url(#d)"
           id="path11"
           style="fill:url(#d)" /></g></g><rect
       style="fill:none;stroke:none;stroke-width:0.396875"
       id="rect1"
       width="58.142578"
       height="57.973072"
       x="14.069489"
       y="83.060829" /></g></svg>
