<?xml version='1.0' encoding='utf-8'?>
<svg xmlns="http://www.w3.org/2000/svg" width="91.44mm" height="91.44mm" version="1.1" style="shape-rendering:geometricPrecision; text-rendering:geometricPrecision; image-rendering:optimizeQuality; fill-rule:evenodd; clip-rule:evenodd" viewBox="0 0 9144 9144"> <defs> <style type="text/css">  .fil0 {fill:#F0F0F0} .fil1 {fill:#011627;fill-rule:nonzero}  </style> </defs> <g id="Layer_x0020_1"> <metadata id="CorelCorpID_0Corel-Layer"/> <g id="_2744591192576"> <polygon class="fil0" points="0,0 9144,0 9144,9144 0,9144 "/> <path class="fil1" d="M6601 4572c0,-560 -227,-1067 -594,-1435 -368,-367 -875,-594 -1435,-594 -560,0 -1067,227 -1435,594 -367,368 -594,875 -594,1435 0,560 227,1067 594,1435 368,367 875,594 1435,594 560,0 1067,-227 1435,-594 367,-368 594,-875 594,-1435zm-535 -88c49,0 88,39 88,88 0,49 -39,88 -88,88l-335 0 0 335c0,49 -39,88 -88,88 -49,0 -88,-39 -88,-88l0 -335 -335 0c-49,0 -88,-39 -88,-88 0,-49 39,-88 88,-88l335 0 0 -335c0,-49 39,-88 88,-88 49,0 88,39 88,88l0 335 335 0zm-1556 290l0 -404 0 -221 0 -408 -786 417 0 828 786 418 0 -409 0 -221zm-962 177l0 -758 -310 0 0 758 310 0zm66 -934l887 -471c3,-1 5,-3 8,-4 29,-12 60,-14 88,-5 31,10 59,31 75,62 1,1 1,3 2,4 4,9 7,17 9,26 2,11 3,21 3,29l0 491 0 158c13,6 25,13 37,20 15,10 30,22 44,35l1 2 0 0c5,4 8,8 10,11 24,26 42,56 55,87 14,35 21,72 21,110 0,75 -28,149 -85,207 -3,3 -5,6 -8,8 -12,11 -25,21 -39,30 -2,2 -5,3 -7,4 -9,6 -19,12 -29,16l0 158 0 491c0,34 -14,66 -36,89 -23,23 -55,38 -90,38 -11,0 -22,-2 -33,-5l-1 0 0 0c-8,-2 -16,-5 -24,-9l-2 -1 0 0 -886 -471 -426 0c-35,0 -66,-14 -89,-37l0 0c-23,-23 -37,-54 -37,-89l0 -858c0,-35 14,-66 37,-89 23,-23 54,-37 89,-37l426 0zm2517 -1004c399,399 646,950 646,1559 0,609 -247,1160 -646,1559 -399,399 -950,646 -1559,646 -609,0 -1160,-247 -1559,-646 -399,-399 -646,-950 -646,-1559 0,-609 247,-1160 646,-1559 399,-399 950,-646 1559,-646 609,0 1160,247 1559,646z"/> </g> </g> </svg>